<svg width="1024" height="1024" viewBox="0 0 1024 1024" fill="none" xmlns="http://www.w3.org/2000/svg">
<path fill-rule="evenodd" clip-rule="evenodd" d="M476.615 424.263C469.33 486.608 454.146 533.587 451.159 542.824C445.533 560.232 446.038 562.111 440.769 562.244C437.603 562.323 406.973 562.092 370.877 562.316C364.388 562.355 366.744 559.096 368.748 553.023C382.488 511.377 400.068 450.804 406.224 422.722C406.936 419.464 414.615 384.435 413.705 381.709C412.963 379.491 409.83 380.08 395.341 380.026C388.918 380.004 318.571 379.752 315.048 380.092C311.149 380.469 310.965 381.952 306.357 393.468C304.281 398.656 299.903 411.646 289.05 438.178C287.555 441.832 254.363 528.306 245.419 549.817C242.422 557.025 241.678 559.652 235.03 575.611C227.051 594.768 223.988 607.338 220.38 609.217C218.983 609.944 218.871 609.609 201.328 614.336C161.86 624.977 143.723 629.409 138.692 630.639C133.001 632.03 118.208 636.248 117.606 636.227C114.59 636.119 114.758 634.879 116.01 632.174C118.06 627.747 119.115 626.907 132.929 597.582C139.881 582.82 149.916 562.654 154.131 553.047C155.766 549.321 156.22 549.553 175.934 507.065C179.142 500.149 179.735 500.237 186.507 484.76C187.627 482.198 224.145 404.237 227.961 395.271C231.721 386.434 234.12 383.94 233.208 381.23C232.753 379.875 232.145 380.427 213.72 380.299C180.844 380.071 179.697 381.057 178.457 378.151C177.35 375.556 172.523 344.566 175.422 317.891C175.827 314.171 177.951 313.764 180.523 313.716C181.052 313.706 249.636 313.786 255.645 313.793C262.618 313.8 263.821 314.087 266.419 307.7C266.769 306.843 283.29 269.473 283.826 268.18C285.318 264.589 285.856 264.831 303.516 223.73C305.248 219.698 309.34 211.242 315.63 196.197C325.332 172.984 338.319 144.793 355.189 104.934C370.257 69.3321 373.275 64.7246 375.377 61.5132C398.159 26.7239 432.474 26.5453 477.378 28.4103C484.913 28.7229 486.497 29.0509 486.871 32.7362C487.042 34.4209 485.979 86.2219 485.75 132.406C485.507 181.385 483.132 309.022 483.733 311.203C484.603 314.365 486.38 313.839 505.359 313.843C609.939 313.862 614.689 312.88 650.181 320.128C659.024 321.935 686.063 329.522 706.011 340.502C730.337 353.894 745.097 366.717 758.936 382.841C767.201 392.47 777.071 409.276 781.44 420.85C798.813 466.874 794.068 517.143 772.192 554.67C756.137 582.209 738.52 595.645 716.428 609.445C690.113 625.885 650.422 636.632 627.681 639.553C584.845 645.057 580.186 641.382 550.789 642.887C513.982 644.769 498.99 666.993 492.747 676.57C487.603 684.463 483.242 697.489 476.041 713.025C471.387 723.065 465.006 739.499 453.089 766.145C442.77 789.214 430.127 818.085 428.147 822.609C426.811 825.658 426.577 825.549 411.134 860.578C385.67 918.345 385.123 918.088 374.434 942.997C367.905 958.213 367.668 959.09 364.004 960.402C360.897 961.513 247.752 994.238 243.316 995.799C239.376 997.185 238.363 994.881 240.683 991.456C242.775 988.369 264.708 948.166 279.662 922.139C279.923 921.684 310.223 867.54 316.295 856.864C318.857 852.356 318.499 852.193 347.817 800.234C354.216 788.896 360.985 775.946 362.631 773.219C365.474 768.515 381.468 738.869 383.559 735.428C385.707 731.893 427.01 656.66 445.564 616.505C449.996 606.914 464.148 577.394 478.512 527.209C494.927 469.859 500.263 405.422 500.679 403.912C501.344 401.489 504.917 401.436 505.342 401.431C511.349 401.343 511.342 401.592 580.449 401.371C588.9 401.343 593.189 400.938 594.222 402.192C595.937 404.273 594.523 404.639 580.72 445.047C567.162 484.743 564.7 490.358 557.557 511.868C556.735 514.346 556.684 514.306 546.764 542.675C539.654 563.003 536.254 573.59 536.251 573.749C536.205 576.138 538.336 576.542 538.631 576.599C538.685 576.609 588.184 576.667 594.411 576.576C598.017 576.525 685.628 576.281 716.239 520.298C727.492 499.716 737.626 452.439 699.063 415.901C699.059 415.898 678.366 395.317 643.386 386.32C610.583 377.887 603.593 379.841 526.314 379.666C522.467 379.657 484.915 379.623 484.4 379.669C479.957 380.073 480.731 381.897 479.105 398.585C478.906 400.639 476.798 422.267 476.615 424.263ZM347.074 290.67C345.652 293.809 338.417 310.858 338.375 311.095C338.176 312.203 338.314 312.225 339.091 313.05C340.614 314.662 341.084 313.669 411.063 313.79C411.739 313.791 419.022 313.803 419.513 313.587C421.633 312.655 421.867 309.715 421.899 309.326C422.351 303.646 424.874 260.321 425.122 256.059C425.29 253.191 430.482 157.277 431.248 135.825C431.278 134.992 432.357 126.323 426.673 124.044C422.276 122.282 417.875 124.884 416.286 127.247C414.487 129.924 414.753 130.06 399.082 166.853C389.959 188.273 381.819 209.348 358.758 262.959C356.949 267.166 351.925 279.796 347.074 290.67Z" fill="#FFCC00"/>
<path fill-rule="evenodd" clip-rule="evenodd" d="M811.118 596.216C816.049 590.444 816.398 590.767 822.149 582.864C831.432 570.102 833.811 567.427 843.057 550.058C893.628 455.063 861.622 355.49 829.496 299.364C800.32 248.395 769.004 217.94 751.168 201.546C737.094 188.61 736.782 189.005 728.674 182.477C718.519 174.303 718.322 174.621 700.651 162.028C688.72 153.527 664.918 139.454 653.917 133.898C631.341 122.499 620.255 117.884 617.26 116.637C561.1 93.2647 518.751 88.81 510.712 87.2868C506.251 86.4419 506.984 83.9311 507.34 72.3084C508.454 35.8636 508.098 35.1629 508.268 34.3798C508.69 32.4186 510.431 31.9 510.705 31.8176C511.825 31.4844 539.769 35.7588 552.41 38.4447C559.45 39.9405 599.639 48.4772 638.342 64.8346C673.07 79.5125 746.662 112.315 818.089 188.955C829.808 201.529 829.648 201.641 840.412 215.022C854.164 232.12 870.645 257.113 877.555 269.667C883.356 280.208 956.554 398.314 911.318 534.519C879.233 631.125 803.642 678.856 802.077 680.022C797.959 683.089 789.617 688.373 788.505 689.157C780.891 694.515 767.747 701.585 767.001 702.009C749.43 711.999 720.934 723.726 707.851 728.078C605 762.28 521.473 748.804 493.009 744.521C488.741 743.879 486.715 744.416 487.626 740.265C487.653 740.149 508.273 692.713 508.666 692.107C510.248 689.672 512.899 690.764 524.602 691.978C632.991 703.227 707.421 667.383 713.296 665.049C728.576 658.975 757.058 643.095 770.997 632.401C783.516 622.796 791.91 617.37 811.118 596.216Z" fill="#FFCC00"/>
<path fill-rule="evenodd" clip-rule="evenodd" d="M177.478 232.207C171.425 245.938 133.512 319.632 167.723 424.539C176.229 450.618 179.139 450.381 177.399 455.385C176.814 457.066 152.654 507.047 150.648 511.821C149.67 514.151 150.066 515.128 147.482 514.922C145.662 514.776 146.118 514.002 141.279 505.534C141.267 505.513 119.147 467.92 108.424 422.754C107.77 419.995 93.7556 371.403 99.2913 309.36C101.506 284.559 109.828 246.143 122.657 218.154C127.913 206.688 133.931 192.637 149.965 169.058C153.571 163.755 169.295 143.59 177.715 134.731C241.703 67.3966 318.856 47.9446 334.284 43.3199C340.756 41.3793 355.088 38.2864 356.908 37.8932C358.869 37.469 364.193 35.501 365.36 36.588C367.226 38.326 362.89 41.3845 362.576 41.7039C350.665 53.7869 336.017 98.8474 333.085 102.028C329.493 105.926 314.315 106.524 278.789 126.295C248.872 142.944 229.851 161.545 226.114 165.199C196.488 194.168 185.024 217.632 177.478 232.207Z" fill="#FFCC00"/>
<path fill-rule="evenodd" clip-rule="evenodd" d="M292.19 596.226C298.486 601.158 298.411 601.213 304.814 606.017C350.185 640.051 396.862 657.579 397.992 658.744C400.11 660.925 396.216 666.525 394.342 670.279C392.964 673.037 387.201 684.574 376.479 704.457C373.461 710.052 371.406 707.843 363.773 704.587C310.886 682.029 274.757 654.06 254.502 638.301C249.326 634.274 243.514 628.687 242.599 627.81C242.302 627.523 241.96 627.284 241.647 627.013C236.856 622.876 240.339 619.17 245.379 606.474C246.776 602.956 259.231 572.936 259.594 572.299C261.606 568.765 264.337 571.461 264.623 571.743C279.249 586.17 289.854 594.32 292.19 596.226Z" fill="#FFCC00"/>
</svg>
