<?xml version="1.0" encoding="UTF-8" standalone="no"?>
<!DOCTYPE svg PUBLIC "-//W3C//DTD SVG 1.1//EN" "http://www.w3.org/Graphics/SVG/1.1/DTD/svg11.dtd">
<svg width="100%" height="100%" viewBox="0 0 244 284" version="1.1" xmlns="http://www.w3.org/2000/svg" xmlns:xlink="http://www.w3.org/1999/xlink" xml:space="preserve" xmlns:serif="http://www.serif.com/" style="fill-rule:evenodd;clip-rule:evenodd;stroke-linejoin:round;stroke-miterlimit:2;">
    <g transform="matrix(1,0,0,1,-118.110236,-118.110236)">
        <g id="Background" transform="matrix(0.512716,0,0,0.503028,15.961419,-9.951376)">
            <path d="M416.04,485.449C411.868,521.753 403.173,549.109 401.463,554.488C398.241,564.625 398.53,565.719 395.513,565.796C393.7,565.842 376.16,565.708 355.49,565.838C351.774,565.861 353.123,563.963 354.271,560.427C362.139,536.176 372.206,500.904 375.731,484.552C376.139,482.655 380.536,462.257 380.015,460.67C379.59,459.378 377.796,459.721 369.499,459.69C365.821,459.677 325.537,459.53 323.52,459.728C321.287,459.948 321.182,460.811 318.543,467.517C317.354,470.538 314.847,478.102 308.632,493.552C307.776,495.68 288.769,546.034 283.647,558.56C281.931,562.757 281.505,564.287 277.698,573.58C273.129,584.735 271.375,592.055 269.309,593.149C268.509,593.572 268.445,593.377 258.399,596.13C235.798,602.326 225.412,604.907 222.531,605.623C219.272,606.433 210.801,608.889 210.456,608.877C208.729,608.814 208.825,608.092 209.542,606.517C210.716,603.939 211.32,603.45 219.231,586.374C223.212,577.778 228.958,566.035 231.372,560.441C232.308,558.271 232.568,558.406 243.857,533.665C245.694,529.638 246.034,529.689 249.912,520.677C250.553,519.185 271.465,473.788 273.65,468.567C275.803,463.421 277.177,461.969 276.655,460.391C276.394,459.602 276.046,459.923 265.495,459.849C246.669,459.716 246.012,460.29 245.302,458.598C244.668,457.087 241.904,439.041 243.564,423.508C243.796,421.342 245.012,421.105 246.485,421.077C246.788,421.071 286.062,421.118 289.503,421.122C293.496,421.126 294.185,421.293 295.673,417.574C295.873,417.075 305.334,395.314 305.641,394.561C306.495,392.47 306.803,392.611 316.916,368.678C317.908,366.33 320.251,361.406 323.853,352.645C329.409,339.128 336.846,322.712 346.506,299.502C355.135,278.771 356.863,276.088 358.067,274.218C371.113,253.96 390.763,253.856 416.477,254.942C420.792,255.124 421.699,255.315 421.913,257.461C422.011,258.442 421.402,288.606 421.271,315.499C421.132,344.02 419.772,418.344 420.116,419.614C420.614,421.455 421.632,421.149 432.5,421.151C492.387,421.162 495.107,420.59 515.431,424.811C520.495,425.863 535.979,430.281 547.402,436.675C561.332,444.473 569.784,451.94 577.709,461.329C582.442,466.936 588.094,476.722 590.596,483.462C600.544,510.262 597.827,539.534 585.3,561.386C576.106,577.422 566.018,585.246 553.367,593.282C538.298,602.855 515.569,609.113 502.547,610.814C478.017,614.019 475.349,611.879 458.515,612.755C437.438,613.851 428.853,626.792 425.278,632.369C422.332,636.965 419.835,644.55 415.711,653.597C413.046,659.443 409.392,669.013 402.568,684.529C396.659,697.962 389.419,714.774 388.285,717.408C387.52,719.184 387.386,719.12 378.543,739.518C363.961,773.156 363.648,773.006 357.527,787.511C353.788,796.371 353.652,796.882 351.554,797.646C349.775,798.293 284.983,817.349 282.443,818.258C280.187,819.065 279.607,817.723 280.935,815.729C282.133,813.931 294.693,790.521 303.256,775.365C303.406,775.1 320.757,743.572 324.234,737.355C325.701,734.73 325.496,734.635 342.285,704.379C345.949,697.777 349.825,690.236 350.768,688.648C352.396,685.909 361.555,668.646 362.752,666.642C363.982,664.584 387.634,620.775 398.259,597.393C400.797,591.808 408.901,574.618 417.126,545.395C426.526,512 429.582,474.478 429.82,473.599C430.201,472.188 432.247,472.157 432.49,472.154C435.93,472.103 435.926,472.248 475.5,472.119C480.339,472.103 482.795,471.867 483.387,472.597C484.369,473.809 483.559,474.022 475.655,497.552C467.891,520.667 466.481,523.937 462.391,536.462C461.92,537.905 461.891,537.882 456.21,554.401C452.139,566.238 450.192,572.403 450.19,572.496C450.164,573.887 451.384,574.122 451.553,574.155C451.584,574.161 479.929,574.195 483.495,574.142C485.56,574.112 535.73,573.97 553.259,541.371C559.703,529.386 565.506,501.856 543.423,480.58C543.421,480.578 531.571,468.594 511.54,463.355C492.756,458.444 488.753,459.582 444.5,459.48C442.297,459.475 420.793,459.455 420.498,459.482C417.954,459.717 418.397,460.779 417.466,470.497C417.352,471.693 416.145,484.287 416.04,485.449ZM341.859,407.657C341.045,409.485 336.902,419.413 336.878,419.551C336.764,420.196 336.843,420.209 337.288,420.689C338.16,421.628 338.429,421.05 378.502,421.12C378.889,421.121 383.06,421.128 383.341,421.002C384.555,420.459 384.689,418.747 384.707,418.521C384.966,415.213 386.411,389.985 386.553,387.503C386.649,385.833 389.622,329.982 390.061,317.49C390.078,317.005 390.696,311.957 387.441,310.63C384.923,309.604 382.403,311.119 381.493,312.495C380.463,314.054 380.615,314.133 371.641,335.558C366.417,348.031 361.756,360.303 348.55,391.521C347.514,393.971 344.637,401.325 341.859,407.657Z" style="fill:rgb(8,6,5);"/>
            <path d="M607.587,585.578C610.411,582.217 610.611,582.405 613.904,577.803C619.22,570.372 620.582,568.814 625.877,558.7C654.836,503.384 636.508,445.402 618.111,412.72C601.404,383.04 583.471,365.306 573.257,355.76C565.198,348.227 565.019,348.457 560.376,344.656C554.561,339.896 554.448,340.081 544.329,332.748C537.497,327.798 523.867,319.603 517.567,316.368C504.639,309.73 498.291,307.043 496.576,306.317C464.416,292.707 440.165,290.113 435.562,289.226C433.007,288.734 433.427,287.272 433.631,280.504C434.269,259.282 434.065,258.874 434.162,258.418C434.404,257.276 435.401,256.974 435.558,256.926C436.199,256.732 452.201,259.221 459.44,260.785C463.471,261.656 486.485,266.627 508.648,276.152C528.535,284.699 570.677,303.8 611.579,348.428C618.29,355.75 618.198,355.815 624.362,363.607C632.237,373.563 641.675,388.117 645.632,395.427C648.954,401.565 690.87,470.339 664.966,549.652C646.593,605.906 603.306,633.7 602.41,634.379C600.052,636.165 595.275,639.242 594.638,639.698C590.278,642.818 582.751,646.935 582.324,647.182C572.262,652.999 555.944,659.828 548.452,662.362C489.555,682.278 441.724,674.431 425.424,671.937C422.98,671.563 421.82,671.876 422.342,669.459C422.357,669.391 434.165,641.769 434.39,641.416C435.296,639.998 436.814,640.634 443.516,641.341C505.584,647.891 548.206,627.019 551.57,625.66C560.32,622.123 576.63,612.876 584.612,606.649C591.781,601.056 596.588,597.896 607.587,585.578Z" style="fill:rgb(8,6,5);"/>
            <path d="M244.743,373.614C241.277,381.61 219.566,424.522 239.157,485.61C244.028,500.796 245.694,500.658 244.698,503.572C244.363,504.551 230.528,533.655 229.379,536.435C228.819,537.792 229.046,538.361 227.566,538.241C226.524,538.156 226.785,537.705 224.014,532.774C224.007,532.762 211.34,510.871 205.2,484.571C204.825,482.964 196.8,454.669 199.97,418.541C201.238,404.099 206.004,381.729 213.35,365.431C216.36,358.754 219.806,350.572 228.988,336.842C231.053,333.754 240.057,322.012 244.879,316.853C281.521,277.644 325.702,266.317 334.537,263.624C338.243,262.494 346.45,260.693 347.492,260.464C348.615,260.217 351.664,259.071 352.332,259.704C353.401,260.716 350.918,262.497 350.738,262.683C343.917,269.719 335.529,295.958 333.85,297.81C331.793,300.08 323.102,300.428 302.758,311.941C285.626,321.636 274.734,332.467 272.594,334.595C255.629,351.464 249.064,365.127 244.743,373.614Z" style="fill:rgb(8,6,5);"/>
            <path d="M310.43,585.585C314.035,588.457 313.992,588.489 317.659,591.286C343.64,611.104 370.369,621.311 371.016,621.989C372.229,623.259 369.999,626.52 368.926,628.706C368.137,630.312 364.837,637.03 358.697,648.608C356.969,651.866 355.792,650.58 351.421,648.684C321.136,635.548 300.447,619.262 288.848,610.085C285.884,607.74 282.556,604.487 282.032,603.976C281.862,603.809 281.666,603.67 281.487,603.512C278.743,601.103 280.738,598.945 283.624,591.552C284.424,589.504 291.556,572.023 291.764,571.652C292.916,569.594 294.48,571.164 294.644,571.328C303.019,579.729 309.092,584.475 310.43,585.585Z" style="fill:rgb(8,6,5);"/>
        </g>
    </g>
</svg>
